<svg width="68" height="48" viewBox="0 0 68 48" fill="none" xmlns="http://www.w3.org/2000/svg">
<path d="M0 13.7901C0 6.17402 6.18407 0 13.8125 0H54.1875C61.8159 0 68 6.17402 68 13.7901V34.2099C68 41.826 61.8159 48 54.1875 48H13.8125C6.18407 48 0 41.826 0 34.2099V13.7901Z" fill="#F61C0D"/>
<path d="M44.7354 23.2293C45.4391 23.5661 45.4391 24.5665 44.7354 24.9033L26.101 33.8213C25.4838 34.1167 24.7694 33.6676 24.7694 32.9844L24.7694 15.1482C24.7694 14.465 25.4838 14.0159 26.101 14.3112L44.7354 23.2293Z" fill="white"/>
</svg>




<svg width="512" height="362" viewBox="0 0 512 362" fill="none" xmlns="http://www.w3.org/2000/svg">
						<path class='video-main__btn-shepe' d="M0 104C0 46.5624 46.5624 0 104 0H408C465.438 0 512 46.5624 512 104V258C512 315.438 465.438 362 408 362H104C46.5624 362 0 315.438 0 258V104Z" fill="#F61C0D"/>
						<path class='video-main__btn-icon' d="M336.831 175.188C342.13 177.728 342.13 185.272 336.831 187.812L196.525 255.069C191.879 257.297 186.5 253.91 186.5 248.757L186.5 114.243C186.5 109.09 191.879 105.703 196.525 107.931L336.831 175.188Z" fill="white"/>
						</svg>