<svg width="21" height="21" fill="none" xmlns="http://www.w3.org/2000/svg"><circle cx="10.5" cy="10.5" r="10" stroke="#2E3A59"/><path d="M13.344 11.925h1.312a4.185 4.185 0 01-.54 1.688 3.155 3.155 0 01-1.237 1.183c-.533.287-1.199.43-1.996.43a3.786 3.786 0 01-1.593-.328 3.539 3.539 0 01-1.224-.93 4.351 4.351 0 01-.793-1.455 6.215 6.215 0 01-.273-1.9V9.62c0-.697.091-1.328.273-1.893.187-.57.454-1.058.8-1.463a3.571 3.571 0 011.265-.937A4.076 4.076 0 0110.999 5c.752 0 1.388.141 1.907.424.52.282.923.674 1.21 1.176.292.496.472 1.073.54 1.73h-1.312a3.66 3.66 0 00-.356-1.197 1.848 1.848 0 00-.738-.78c-.319-.182-.736-.273-1.251-.273a2.58 2.58 0 00-1.169.253 2.354 2.354 0 00-.84.718 3.34 3.34 0 00-.507 1.114c-.114.433-.17.914-.17 1.442v1.005c0 .488.05.946.15 1.374.105.429.262.805.472 1.128.21.324.476.579.8.766.323.182.706.273 1.148.273.56 0 1.007-.088 1.34-.266a1.75 1.75 0 00.752-.766c.173-.333.296-.731.369-1.196z" fill="#2E3A59"/></svg>